<svg width="18" height="21" viewBox="0 0 18 21" fill="none" xmlns="http://www.w3.org/2000/svg">
<path fill-rule="evenodd" clip-rule="evenodd" d="M0 15.3701V7.75708H18V15.4311C18 18.5701 16.0241 20.5001 12.8628 20.5001H5.12733C1.99561 20.5001 0 18.5301 0 15.3701ZM4.95938 12.9101C4.50494 12.9311 4.12953 12.5701 4.10977 12.1111C4.10977 11.6511 4.46542 11.2711 4.91987 11.2501C5.36443 11.2501 5.72997 11.6011 5.73985 12.0501C5.7596 12.5111 5.40395 12.8911 4.95938 12.9101ZM9.01976 12.9101C8.56531 12.9311 8.1899 12.5701 8.17014 12.1111C8.17014 11.6511 8.5258 11.2711 8.98024 11.2501C9.42481 11.2501 9.79034 11.6011 9.80022 12.0501C9.81998 12.5111 9.46432 12.8911 9.01976 12.9101ZM13.0505 16.5901C12.596 16.5801 12.2305 16.2001 12.2305 15.7401C12.2206 15.2801 12.5862 14.9011 13.0406 14.8911H13.0505C13.5148 14.8911 13.8902 15.2711 13.8902 15.7401C13.8902 16.2101 13.5148 16.5901 13.0505 16.5901ZM8.17014 15.7401C8.1899 16.2001 8.56531 16.5611 9.01976 16.5401C9.46432 16.5211 9.81998 16.1411 9.80022 15.6811C9.79034 15.2311 9.42481 14.8801 8.98024 14.8801C8.5258 14.9011 8.17014 15.2801 8.17014 15.7401ZM4.09989 15.7401C4.11965 16.2001 4.49506 16.5611 4.94951 16.5401C5.39407 16.5211 5.74973 16.1411 5.72997 15.6811C5.72009 15.2311 5.35456 14.8801 4.90999 14.8801C4.45554 14.9011 4.09989 15.2801 4.09989 15.7401ZM12.2404 12.1011C12.2404 11.6411 12.596 11.2711 13.0505 11.2611C13.4951 11.2611 13.8507 11.6201 13.8705 12.0611C13.8804 12.5211 13.5247 12.9011 13.0801 12.9101C12.6257 12.9201 12.2503 12.5701 12.2404 12.1111V12.1011Z" fill="#00ACD1"/>
<path opacity="0.4" d="M0.00341797 7.75699C0.016261 7.16999 0.0656573 6.00499 0.158522 5.62999C0.632726 3.52099 2.24304 2.18099 4.54491 1.98999H13.456C15.7381 2.19099 17.3682 3.53999 17.8424 5.62999C17.9343 5.99499 17.9837 7.16899 17.9965 7.75699H0.00341797Z" fill="#00ACD1"/>
<path d="M5.30465 5.09C5.73934 5.09 6.06535 4.761 6.06535 4.32V1.271C6.06535 0.83 5.73934 0.5 5.30465 0.5C4.86996 0.5 4.54395 0.83 4.54395 1.271V4.32C4.54395 4.761 4.86996 5.09 5.30465 5.09Z" fill="#00ACD1"/>
<path d="M12.6948 5.09C13.1196 5.09 13.4555 4.761 13.4555 4.32V1.271C13.4555 0.83 13.1196 0.5 12.6948 0.5C12.2601 0.5 11.9341 0.83 11.9341 1.271V4.32C11.9341 4.761 12.2601 5.09 12.6948 5.09Z" fill="#00ACD1"/>
</svg>
