<svg width="20" height="21" viewBox="0 0 20 21" fill="none" xmlns="http://www.w3.org/2000/svg">
<path opacity="0.4" d="M14.34 0.5H5.67C2.28 0.5 0 2.88 0 6.42V14.59C0 18.12 2.28 20.5 5.67 20.5H14.34C17.73 20.5 20 18.12 20 14.59V6.42C20 2.88 17.73 0.5 14.34 0.5Z" fill="#F44242"/>
<path d="M13.2898 12.5518L11.5107 10.7738L13.2888 8.99575C13.6308 8.65475 13.6308 8.09975 13.2888 7.75875C12.9468 7.41475 12.3938 7.41575 12.0518 7.75775L10.2727 9.53575L8.49375 7.75575C8.15175 7.41375 7.59775 7.41575 7.25575 7.75575C6.91475 8.09775 6.91475 8.65275 7.25575 8.99375L9.03575 10.7738L7.25975 12.5488C6.91775 12.8908 6.91775 13.4458 7.25975 13.7858C7.43075 13.9578 7.65375 14.0428 7.87775 14.0428C8.10275 14.0428 8.32575 13.9578 8.49675 13.7868L10.2727 12.0108L12.0528 13.7898C12.2238 13.9608 12.4468 14.0458 12.6708 14.0458C12.8948 14.0458 13.1188 13.9598 13.2898 13.7898C13.6318 13.4478 13.6318 12.8938 13.2898 12.5518Z" fill="#F44242"/>
</svg>
