<svg width="64" height="64" viewBox="0 0 64 64" fill="none" xmlns="http://www.w3.org/2000/svg">
<g filter="url(#filter0_b_2385_3422)">
<rect width="63.0087" height="63.0087" rx="31.5043" fill="#FDA362"/>
</g>
<path d="M36.4107 25.7871H27.0355H26.6094V32.2503L30.4447 36.4052H33.0016L36.4107 32.712V25.7871Z" fill="white" fill-opacity="0.8"/>
<path fill-rule="evenodd" clip-rule="evenodd" d="M25.1797 24.1534C25.1797 20.6583 28.0111 17.8269 31.5062 17.8269C35.0013 17.8269 37.8327 20.6583 37.8327 24.1534V30.8918C37.8327 34.3869 35.0013 37.2184 31.5062 37.2184C28.0111 37.2184 25.1797 34.3869 25.1797 30.8918V24.1534ZM31.5062 20.6786C29.5861 20.6786 28.0314 22.2333 28.0314 24.1534V30.8918C28.0314 32.812 29.5861 34.3667 31.5062 34.3667C33.4264 34.3667 34.981 32.812 34.981 30.8918V24.1534C34.981 22.2333 33.4264 20.6786 31.5062 20.6786Z" fill="white"/>
<path fill-rule="evenodd" clip-rule="evenodd" d="M22.1368 27.1993C22.9243 27.1993 23.5626 27.8377 23.5626 28.6252V30.708C23.5626 35.0907 27.1266 38.6547 31.5093 38.6547C35.8921 38.6547 39.456 35.0907 39.456 30.708V28.6252C39.456 27.8377 40.0944 27.1993 40.8819 27.1993C41.6693 27.1993 42.3077 27.8377 42.3077 28.6252V30.708C42.3077 36.6657 37.467 41.5064 31.5093 41.5064C25.5516 41.5064 20.7109 36.6657 20.7109 30.708V28.6252C20.7109 27.8377 21.3493 27.1993 22.1368 27.1993Z" fill="white"/>
<path fill-rule="evenodd" clip-rule="evenodd" d="M31.5079 38.6545C32.2953 38.6545 32.9337 39.2929 32.9337 40.0804V43.7559C32.9337 44.5434 32.2953 45.1817 31.5079 45.1817C30.7204 45.1817 30.082 44.5434 30.082 43.7559V40.0804C30.082 39.2929 30.7204 38.6545 31.5079 38.6545Z" fill="white"/>
<defs>
<filter id="filter0_b_2385_3422" x="-10.5" y="-10.5" width="84.0078" height="84.0087" filterUnits="userSpaceOnUse" color-interpolation-filters="sRGB">
<feFlood flood-opacity="0" result="BackgroundImageFix"/>
<feGaussianBlur in="BackgroundImageFix" stdDeviation="5.25"/>
<feComposite in2="SourceAlpha" operator="in" result="effect1_backgroundBlur_2385_3422"/>
<feBlend mode="normal" in="SourceGraphic" in2="effect1_backgroundBlur_2385_3422" result="shape"/>
</filter>
</defs>
</svg>
