<svg width="64" height="64" viewBox="0 0 64 64" fill="none" xmlns="http://www.w3.org/2000/svg">
<g filter="url(#filter0_b_2385_3408)">
<rect width="63.0087" height="63.0087" rx="31.5043" fill="#0060FF"/>
</g>
<path fill-rule="evenodd" clip-rule="evenodd" d="M21.3893 23.3239C21.007 23.7062 20.6798 24.4887 20.6798 26.3465V36.6624C20.6798 37.7444 20.9518 38.6686 21.4763 39.2978C21.9627 39.8813 22.8176 40.3945 24.4119 40.3945H32.155C34.0053 40.3945 34.7894 40.0678 35.1739 39.684C35.5578 39.3009 35.8871 38.5175 35.8871 36.6624V26.3465C35.8871 24.4887 35.5599 23.7062 35.1776 23.3239C34.7953 22.9416 34.0128 22.6144 32.155 22.6144H24.4119C22.5541 22.6144 21.7717 22.9416 21.3893 23.3239ZM19.3729 21.3075C20.6017 20.0787 22.3982 19.7627 24.4119 19.7627H32.155C34.1687 19.7627 35.9652 20.0787 37.194 21.3075C38.4228 22.5363 38.7388 24.3328 38.7388 26.3465V36.6624C38.7388 38.6789 38.4187 40.4745 37.1885 41.7024C35.9588 42.9297 34.164 43.2462 32.155 43.2462H24.4119C22.1347 43.2462 20.4106 42.473 19.2859 41.1238C18.1993 39.8203 17.8281 38.1656 17.8281 36.6624V26.3465C17.8281 24.3328 18.1441 22.5363 19.3729 21.3075Z" fill="white"/>
<path fill-rule="evenodd" clip-rule="evenodd" d="M41.5311 26.4127C41.5308 26.4129 41.5315 26.4124 41.5311 26.4127L38.7345 28.3743V34.6221L41.5334 36.5854L41.5369 36.5879C41.8296 36.7945 42.0383 36.8668 42.1504 36.8874C42.1688 36.8908 42.1838 36.8927 42.1957 36.8938C42.2019 36.8831 42.2093 36.8692 42.2174 36.8515C42.2657 36.7466 42.3272 36.5327 42.3272 36.1723V26.8365C42.3272 26.4761 42.2658 26.2621 42.2173 26.1568C42.2082 26.137 42.2001 26.122 42.1934 26.1108C42.1808 26.1117 42.1645 26.1136 42.144 26.1173C42.0317 26.1375 41.8227 26.2091 41.5311 26.4127ZM43.5187 23.5725C44.743 24.2119 45.1789 25.5578 45.1789 26.8365V36.1723C45.1789 37.4496 44.7436 38.7984 43.5159 39.4361C42.2881 40.0739 40.9358 39.6535 39.894 38.9188C39.8935 38.9184 39.8929 38.918 39.8924 38.9176L36.4899 36.5309C36.1094 36.264 35.8828 35.8284 35.8828 35.3636V27.6328C35.8828 27.168 36.1094 26.7324 36.4899 26.4655L39.8981 24.0748C40.942 23.3457 42.2941 22.933 43.5187 23.5725Z" fill="white"/>
<path fill-rule="evenodd" clip-rule="evenodd" d="M30.8886 28.0294C30.6611 28.0294 30.4767 28.2138 30.4767 28.4413C30.4767 28.6688 30.6611 28.8532 30.8886 28.8532C31.1161 28.8532 31.3005 28.6688 31.3005 28.4413C31.3005 28.2138 31.1161 28.0294 30.8886 28.0294ZM27.625 28.4413C27.625 26.6389 29.0862 25.1777 30.8886 25.1777C32.691 25.1777 34.1522 26.6389 34.1522 28.4413C34.1522 30.2438 32.691 31.7049 30.8886 31.7049C29.0862 31.7049 27.625 30.2438 27.625 28.4413Z" fill="white"/>
<defs>
<filter id="filter0_b_2385_3408" x="-10.5" y="-10.5" width="84.0078" height="84.0087" filterUnits="userSpaceOnUse" color-interpolation-filters="sRGB">
<feFlood flood-opacity="0" result="BackgroundImageFix"/>
<feGaussianBlur in="BackgroundImageFix" stdDeviation="5.25"/>
<feComposite in2="SourceAlpha" operator="in" result="effect1_backgroundBlur_2385_3408"/>
<feBlend mode="normal" in="SourceGraphic" in2="effect1_backgroundBlur_2385_3408" result="shape"/>
</filter>
</defs>
</svg>
