<svg width="64" height="64" viewBox="0 0 64 64" fill="none" xmlns="http://www.w3.org/2000/svg">
<g filter="url(#filter0_b_2385_3398)">
<rect width="63.0087" height="63.0087" rx="31.5043" fill="#174799"/>
</g>
<path d="M42 20.75H22C21.0054 20.75 20.0516 21.1451 19.3483 21.8483C18.6451 22.5516 18.25 23.5054 18.25 24.5V39.5C18.25 40.4946 18.6451 41.4484 19.3483 42.1517C20.0516 42.8549 21.0054 43.25 22 43.25H42C42.9946 43.25 43.9484 42.8549 44.6517 42.1517C45.3549 41.4484 45.75 40.4946 45.75 39.5V24.5C45.75 23.5054 45.3549 22.5516 44.6517 21.8483C43.9484 21.1451 42.9946 20.75 42 20.75ZM43.25 39.5C43.25 39.8315 43.1183 40.1495 42.8839 40.3839C42.6495 40.6183 42.3315 40.75 42 40.75H22C21.6685 40.75 21.3505 40.6183 21.1161 40.3839C20.8817 40.1495 20.75 39.8315 20.75 39.5V24.5C20.75 24.1685 20.8817 23.8505 21.1161 23.6161C21.3505 23.3817 21.6685 23.25 22 23.25H42C42.3315 23.25 42.6495 23.3817 42.8839 23.6161C43.1183 23.8505 43.25 24.1685 43.25 24.5V39.5Z" fill="white"/>
<path d="M32.8835 26.1162C32.6491 25.8819 32.3312 25.7502 31.9997 25.7502C31.6683 25.7502 31.3504 25.8819 31.116 26.1162L26.116 31.1162C25.9966 31.2315 25.9014 31.3695 25.8359 31.522C25.7703 31.6745 25.7359 31.8385 25.7344 32.0045C25.733 32.1705 25.7646 32.335 25.8275 32.4887C25.8903 32.6423 25.9831 32.7819 26.1005 32.8992C26.2179 33.0166 26.3574 33.1094 26.511 33.1723C26.6647 33.2351 26.8293 33.2667 26.9952 33.2653C27.1612 33.2638 27.3252 33.2294 27.4777 33.1639C27.6302 33.0983 27.7682 33.0031 27.8835 32.8837L30.7497 30.0175V37C30.7497 37.3315 30.8814 37.6494 31.1159 37.8839C31.3503 38.1183 31.6682 38.25 31.9997 38.25C32.3313 38.25 32.6492 38.1183 32.8836 37.8839C33.118 37.6494 33.2497 37.3315 33.2497 37V30.0175L36.116 32.8837C36.3517 33.1114 36.6675 33.2374 36.9952 33.2346C37.323 33.2317 37.6365 33.1003 37.8683 32.8685C38.1 32.6367 38.2315 32.3232 38.2343 31.9955C38.2372 31.6677 38.1112 31.352 37.8835 31.1162L32.8835 26.1162Z" fill="white"/>
<defs>
<filter id="filter0_b_2385_3398" x="-10.5" y="-10.5" width="84.0078" height="84.0087" filterUnits="userSpaceOnUse" color-interpolation-filters="sRGB">
<feFlood flood-opacity="0" result="BackgroundImageFix"/>
<feGaussianBlur in="BackgroundImageFix" stdDeviation="5.25"/>
<feComposite in2="SourceAlpha" operator="in" result="effect1_backgroundBlur_2385_3398"/>
<feBlend mode="normal" in="SourceGraphic" in2="effect1_backgroundBlur_2385_3398" result="shape"/>
</filter>
</defs>
</svg>
