<svg width="40" height="40" viewBox="0 0 40 40" fill="none" xmlns="http://www.w3.org/2000/svg">
<g clip-path="url(#clip0_558_4890)">
<path d="M25.1694 2.175C24.4965 1.48635 23.6927 0.939151 22.8053 0.565557C21.9179 0.191963 20.9647 -0.000488281 20.0019 -0.000488281C19.0391 -0.000488281 18.0859 0.191963 17.1985 0.565557C16.3111 0.939151 15.5073 1.48635 14.8344 2.175L13.2794 3.77L11.0544 3.7425C10.0913 3.7311 9.13559 3.91239 8.24355 4.27572C7.35151 4.63905 6.54112 5.17707 5.86004 5.85815C5.17896 6.53923 4.64094 7.34961 4.27761 8.24165C3.91429 9.13369 3.733 10.0894 3.74439 11.0525L3.76939 13.2775L2.17939 14.8325C1.49075 15.5054 0.943546 16.3092 0.569952 17.1966C0.196358 18.084 0.00390625 19.0372 0.00390625 20C0.00390625 20.9628 0.196358 21.916 0.569952 22.8034C0.943546 23.6908 1.49075 24.4946 2.17939 25.1675L3.77189 26.7225L3.74439 28.9475C3.733 29.9106 3.91429 30.8663 4.27761 31.7583C4.64094 32.6504 5.17896 33.4608 5.86004 34.1419C6.54112 34.8229 7.35151 35.361 8.24355 35.7243C9.13559 36.0876 10.0913 36.2689 11.0544 36.2575L13.2794 36.2325L14.8344 37.8225C15.5073 38.5112 16.3111 39.0583 17.1985 39.4319C18.0859 39.8055 19.0391 39.998 20.0019 39.998C20.9647 39.998 21.9179 39.8055 22.8053 39.4319C23.6927 39.0583 24.4965 38.5112 25.1694 37.8225L26.7244 36.23L28.9494 36.2575C29.9125 36.2689 30.8682 36.0876 31.7602 35.7243C32.6523 35.361 33.4627 34.8229 34.1437 34.1419C34.8248 33.4608 35.3629 32.6504 35.7262 31.7583C36.0895 30.8663 36.2708 29.9106 36.2594 28.9475L36.2344 26.7225L37.8244 25.1675C38.513 24.4946 39.0602 23.6908 39.4338 22.8034C39.8074 21.916 39.9999 20.9628 39.9999 20C39.9999 19.0372 39.8074 18.084 39.4338 17.1966C39.0602 16.3092 38.513 15.5054 37.8244 14.8325L36.2319 13.2775L36.2594 11.0525C36.2708 10.0894 36.0895 9.13369 35.7262 8.24165C35.3629 7.34961 34.8248 6.53923 34.1437 5.85815C33.4627 5.17707 32.6523 4.63905 31.7602 4.27572C30.8682 3.91239 29.9125 3.7311 28.9494 3.7425L26.7244 3.7675L25.1694 2.1775V2.175ZM25.8869 17.135L18.3869 24.635C18.2708 24.7514 18.1328 24.8438 17.981 24.9068C17.8291 24.9698 17.6663 25.0022 17.5019 25.0022C17.3375 25.0022 17.1747 24.9698 17.0228 24.9068C16.8709 24.8438 16.733 24.7514 16.6169 24.635L12.8669 20.885C12.7507 20.7688 12.6585 20.6308 12.5956 20.479C12.5327 20.3271 12.5003 20.1644 12.5003 20C12.5003 19.8356 12.5327 19.6729 12.5956 19.521C12.6585 19.3692 12.7507 19.2312 12.8669 19.115C12.9831 18.9988 13.1211 18.9066 13.2729 18.8437C13.4248 18.7808 13.5875 18.7484 13.7519 18.7484C13.9163 18.7484 14.079 18.7808 14.2309 18.8437C14.3827 18.9066 14.5207 18.9988 14.6369 19.115L17.5019 21.9825L24.1169 15.365C24.3516 15.1303 24.67 14.9984 25.0019 14.9984C25.3338 14.9984 25.6522 15.1303 25.8869 15.365C26.1216 15.5997 26.2535 15.9181 26.2535 16.25C26.2535 16.5819 26.1216 16.9003 25.8869 17.135Z" fill="#3FC27B"/>
</g>
<defs>
<clipPath id="clip0_558_4890">
<rect width="40" height="40" fill="white"/>
</clipPath>
</defs>
</svg>
