<?xml version="1.0" encoding="utf-8"?>
<!-- Generator: Adobe Illustrator 25.0.0, SVG Export Plug-In . SVG Version: 6.00 Build 0)  -->
<svg version="1.1" id="Layer_1" xmlns="http://www.w3.org/2000/svg" xmlns:xlink="http://www.w3.org/1999/xlink" x="0px" y="0px"
	 viewBox="0 0 22.5 17.4" style="enable-background:new 0 0 22.5 17.4;" xml:space="preserve">
<style type="text/css">
	.st0{fill:#FFFFFF;}
</style>
<g>
	<path class="st0" d="M21.5,1.6H1c-0.4,0-0.8-0.3-0.8-0.8v0c0-0.4,0.3-0.8,0.8-0.8l20.5,0c0.4,0,0.8,0.3,0.8,0.8v0
		C22.2,1.3,21.9,1.6,21.5,1.6z"/>
	<path class="st0" d="M21.5,9.3H1C0.6,9.3,0.2,9,0.2,8.6v0c0-0.4,0.3-0.8,0.8-0.8h20.5c0.4,0,0.8,0.3,0.8,0.8v0
		C22.2,9,21.9,9.3,21.5,9.3z"/>
	<path class="st0" d="M21.5,17.3H1c-0.4,0-0.8-0.3-0.8-0.8v0c0-0.4,0.3-0.8,0.8-0.8h20.5c0.4,0,0.8,0.3,0.8,0.8v0
		C22.2,17,21.9,17.3,21.5,17.3z"/>
</g>
</svg>
