<svg width="27" height="21" viewBox="0 0 27 21" fill="none" xmlns="http://www.w3.org/2000/svg">
<path opacity="0.4" d="M25.7744 3.75675C25.2157 3.40481 24.5291 3.37368 23.9437 3.67148L21.9677 4.66911C21.237 5.0373 20.7837 5.7818 20.7837 6.61022V14.3882C20.7837 15.2167 21.237 15.9598 21.9677 16.3307L23.9424 17.327C24.2104 17.465 24.4971 17.5314 24.7837 17.5314C25.1277 17.5314 25.4691 17.4339 25.7744 17.243C26.3331 16.8925 26.6664 16.2847 26.6664 15.6187V5.38247C26.6664 4.71648 26.3331 4.1087 25.7744 3.75675Z" fill="white"/>
<path d="M13.2068 20.5H5.48405C2.25469 20.5 0 18.2733 0 15.0854V5.91455C0 2.72538 2.25469 0.5 5.48405 0.5H13.2068C16.4362 0.5 18.6909 2.72538 18.6909 5.91455V15.0854C18.6909 18.2733 16.4362 20.5 13.2068 20.5Z" fill="white"/>
</svg>
