<?xml version="1.0" encoding="utf-8"?>
<!-- Generator: Adobe Illustrator 25.0.0, SVG Export Plug-In . SVG Version: 6.00 Build 0)  -->
<svg version="1.1" id="Layer_1" xmlns="http://www.w3.org/2000/svg" xmlns:xlink="http://www.w3.org/1999/xlink" x="0px" y="0px"
	 viewBox="0 0 42 39" style="enable-background:new 0 0 42 39;" xml:space="preserve">
<style type="text/css">
	.st0{fill:url(#SVGID_1_);}
	.st1{fill:none;stroke:url(#SVGID_2_);}
	.st2{fill-rule:evenodd;clip-rule:evenodd;fill:url(#SVGID_3_);}
	.st3{fill:url(#SVGID_4_);}
	.st4{fill:none;stroke:url(#SVGID_5_);}
	.st5{fill-rule:evenodd;clip-rule:evenodd;fill:#FFA201;}
</style>
<g>
	<g>
		
			<linearGradient id="SVGID_1_" gradientUnits="userSpaceOnUse" x1="18.7079" y1="39" x2="18.7079" y2="2" gradientTransform="matrix(1 0 0 -1 0 40)">
			<stop  offset="0" style="stop-color:#FFCE00"/>
			<stop  offset="1" style="stop-color:#FFA300"/>
		</linearGradient>
		<path class="st0" d="M32.2,5.2H20.1L15.9,1H5.2C2.9,1,1,2.9,1,5.2v28.6C1,36.1,2.9,38,5.2,38h28c1.8,0,3.2-1.4,3.2-3.2V9.4
			C36.4,7.1,34.5,5.2,32.2,5.2z"/>
	</g>
	
		<linearGradient id="SVGID_2_" gradientUnits="userSpaceOnUse" x1="18.7079" y1="39" x2="18.7079" y2="2" gradientTransform="matrix(1 0 0 -1 0 40)">
		<stop  offset="0" style="stop-color:#FFC000"/>
		<stop  offset="1" style="stop-color:#FFA600"/>
	</linearGradient>
	<path class="st1" d="M32.2,5.2H20.1L15.9,1H5.2C2.9,1,1,2.9,1,5.2v28.6C1,36.1,2.9,38,5.2,38h28c1.8,0,3.2-1.4,3.2-3.2V9.4
		C36.4,7.1,34.5,5.2,32.2,5.2z"/>
	
		<linearGradient id="SVGID_3_" gradientUnits="userSpaceOnUse" x1="18.7045" y1="31.3195" x2="18.7045" y2="2.935" gradientTransform="matrix(1 0 0 -1 0 40)">
		<stop  offset="0" style="stop-color:#FFFFFF"/>
		<stop  offset="1" style="stop-color:#FFF3CE"/>
	</linearGradient>
	<path class="st2" d="M3.7,14.7c0-3.3,2.7-6,6-6h18.1c3.3,0,6,2.7,6,6v16.4c0,3.3-2.7,6-6,6H9.7c-3.3,0-6-2.7-6-6V14.7z"/>
	<g>
		
			<linearGradient id="SVGID_4_" gradientUnits="userSpaceOnUse" x1="22.8272" y1="28.3141" x2="22.8272" y2="2.1362" gradientTransform="matrix(1 0 0 -1 0 40)">
			<stop  offset="0" style="stop-color:#FFE751"/>
			<stop  offset="1" style="stop-color:#FFCC12"/>
		</linearGradient>
		<path class="st3" d="M36.8,11.7H11.4c-2,0-3.8,1.5-4.2,3.5L4.6,35.6c-0.2,1.2,0.8,2.3,2,2.3h27.5c2,0,3.8-1.5,4.2-3.5l2.7-17.8
			C41.5,14.1,39.5,11.7,36.8,11.7z"/>
	</g>
	
		<linearGradient id="SVGID_5_" gradientUnits="userSpaceOnUse" x1="27.2134" y1="26.5455" x2="16.6785" y2="-0.4018" gradientTransform="matrix(1 0 0 -1 0 40)">
		<stop  offset="0" style="stop-color:#FFC000"/>
		<stop  offset="1" style="stop-color:#FAA203"/>
	</linearGradient>
	<path class="st4" d="M36.8,11.7H11.4c-2,0-3.8,1.5-4.2,3.5L4.6,35.6c-0.2,1.2,0.8,2.3,2,2.3h27.5c2,0,3.8-1.5,4.2-3.5l2.7-17.8
		C41.5,14.1,39.5,11.7,36.8,11.7z"/>
	<path class="st5" d="M28,26l-5.1-6.7L17.9,26h3v6.3h3.7V26H28z"/>
</g>
</svg>
